<?xml version="1.0" encoding="UTF-8" standalone="no"?>
<svg
   width="1254.4863"
   height="552.84302"
   viewBox="0 0 1254.4863 552.84302"
   version="1.1"
   xml:space="preserve"
   style="clip-rule:evenodd;fill-rule:evenodd;stroke-linecap:round;stroke-linejoin:round;stroke-miterlimit:1.5"
   id="svg49"
   sodipodi:docname="growth_cartoon.svg"
   inkscape:export-filename="assets/growth_cartoon.png"
   inkscape:export-xdpi="300"
   inkscape:export-ydpi="300"
   inkscape:version="1.4.2 (ebf0e940d0, 2025-05-08)"
   xmlns:inkscape="http://www.inkscape.org/namespaces/inkscape"
   xmlns:sodipodi="http://sodipodi.sourceforge.net/DTD/sodipodi-0.dtd"
   xmlns:xlink="http://www.w3.org/1999/xlink"
   xmlns="http://www.w3.org/2000/svg"
   xmlns:svg="http://www.w3.org/2000/svg"><defs
   id="defs49"><linearGradient
   id="swatch6"
   inkscape:swatch="solid"><stop
     style="stop-color:#ff7300;stop-opacity:1;"
     offset="0"
     id="stop6" /></linearGradient>
        
        
        
        
        
        
        
        
        
        
        
        
        
        
        
        
        
        
        
    
        
        
        
        
        
        
        
        
        
        
        
        
        
    <linearGradient
   inkscape:collect="always"
   xlink:href="#swatch6"
   id="linearGradient6"
   x1="523.119"
   y1="233.158"
   x2="615.304"
   y2="233.158"
   gradientUnits="userSpaceOnUse" /></defs><sodipodi:namedview
   id="namedview49"
   pagecolor="#ffffff"
   bordercolor="#000000"
   borderopacity="0.25"
   inkscape:showpageshadow="2"
   inkscape:pageopacity="0.0"
   inkscape:pagecheckerboard="0"
   inkscape:deskcolor="#d1d1d1"
   inkscape:zoom="1.234375"
   inkscape:cx="835.64556"
   inkscape:cy="265.31645"
   inkscape:window-width="3816"
   inkscape:window-height="2096"
   inkscape:window-x="0"
   inkscape:window-y="0"
   inkscape:window-maximized="1"
   inkscape:current-layer="svg49"
   showgrid="false" />
    <g
   transform="matrix(1.4255602,0,0,1.4088232,-1218.1806,-5.4320705)"
   id="g4">
            <g
   transform="matrix(0.236915,0,0,0.236915,1430.28,103.402)"
   id="g1">
                <path
   d="m 535.924,134.443 h -3.458 c -5.159,0 -9.347,-4.188 -9.347,-9.347 v -18.118 c 0,-5.159 4.188,-9.348 9.347,-9.348 h 73.491 c 5.159,0 9.347,4.189 9.347,9.348 v 18.118 c 0,5.159 -4.188,9.347 -9.347,9.347 h -3.458 c 0.233,1.599 0.354,3.231 0.354,4.891 v 154.427 c 0,3.186 -0.444,6.269 -1.274,9.192 h 0.499 c 0,0 -21.911,65.733 -32.867,65.733 -10.955,0 -32.866,-65.733 -32.866,-65.733 h 0.499 c -0.83,-2.923 -1.274,-6.006 -1.274,-9.192 V 139.334 c 0,-1.66 0.121,-3.292 0.354,-4.891 z"
   style="fill:#004ec3;fill-opacity:0.7"
   id="path1" />
            </g>
            <g
   transform="matrix(0.236915,0,0,0.236915,1408.44,91.781)"
   id="g2">
                <path
   d="m 535.924,134.443 h -3.458 c -5.159,0 -9.347,-4.188 -9.347,-9.347 v -18.118 c 0,-5.159 4.188,-9.348 9.347,-9.348 h 73.491 c 5.159,0 9.347,4.189 9.347,9.348 v 18.118 c 0,5.159 -4.188,9.347 -9.347,9.347 h -3.458 c 0.233,1.599 0.354,3.231 0.354,4.891 v 154.427 c 0,3.186 -0.444,6.269 -1.274,9.192 h 0.499 c 0,0 -21.911,65.733 -32.867,65.733 -10.955,0 -32.866,-65.733 -32.866,-65.733 h 0.499 c -0.83,-2.923 -1.274,-6.006 -1.274,-9.192 V 139.334 c 0,-1.66 0.121,-3.292 0.354,-4.891 z"
   style="fill:#004ec3"
   id="path2" />
            </g>
            <g
   transform="matrix(0.236915,0,0,0.236915,1452.12,118.219)"
   id="g3">
                <path
   d="m 535.924,134.443 h -3.458 c -5.159,0 -9.347,-4.188 -9.347,-9.347 v -18.118 c 0,-5.159 4.188,-9.348 9.347,-9.348 h 73.491 c 5.159,0 9.347,4.189 9.347,9.348 v 18.118 c 0,5.159 -4.188,9.347 -9.347,9.347 h -3.458 c 0.233,1.599 0.354,3.231 0.354,4.891 v 154.427 c 0,3.186 -0.444,6.269 -1.274,9.192 h 0.499 c 0,0 -21.911,65.733 -32.867,65.733 -10.955,0 -32.866,-65.733 -32.866,-65.733 h 0.499 c -0.83,-2.923 -1.274,-6.006 -1.274,-9.192 V 139.334 c 0,-1.66 0.121,-3.292 0.354,-4.891 z"
   style="fill:#004ec3;fill-opacity:0.38"
   id="path3" />
            </g>
        </g><g
   transform="matrix(1.4255602,0,0,1.4088232,-1218.1806,7.4410663)"
   id="g8">
            <g
   transform="matrix(0.236915,0,0,0.236915,1430.28,8.16259)"
   id="g5">
                <path
   d="m 535.924,134.443 h -3.458 c -5.159,0 -9.347,-4.188 -9.347,-9.347 v -18.118 c 0,-5.159 4.188,-9.348 9.347,-9.348 h 73.491 c 5.159,0 9.347,4.189 9.347,9.348 v 18.118 c 0,5.159 -4.188,9.347 -9.347,9.347 h -3.458 c 0.233,1.599 0.354,3.231 0.354,4.891 v 154.427 c 0,3.186 -0.444,6.269 -1.274,9.192 h 0.499 c 0,0 -21.911,65.733 -32.867,65.733 -10.955,0 -32.866,-65.733 -32.866,-65.733 h 0.499 c -0.83,-2.923 -1.274,-6.006 -1.274,-9.192 V 139.334 c 0,-1.66 0.121,-3.292 0.354,-4.891 z"
   style="fill-opacity:0.7"
   id="path4" />
            </g>
            <g
   transform="matrix(0.236915,0,0,0.236915,1408.44,-3.45829)"
   id="g6">
                <path
   d="m 535.924,134.443 h -3.458 c -5.159,0 -9.347,-4.188 -9.347,-9.347 v -18.118 c 0,-5.159 4.188,-9.348 9.347,-9.348 h 73.491 c 5.159,0 9.347,4.189 9.347,9.348 v 18.118 c 0,5.159 -4.188,9.347 -9.347,9.347 h -3.458 c 0.233,1.599 0.354,3.231 0.354,4.891 v 154.427 c 0,3.186 -0.444,6.269 -1.274,9.192 h 0.499 c 0,0 -21.911,65.733 -32.867,65.733 -10.955,0 -32.866,-65.733 -32.866,-65.733 h 0.499 c -0.83,-2.923 -1.274,-6.006 -1.274,-9.192 V 139.334 c 0,-1.66 0.121,-3.292 0.354,-4.891 z"
   id="path5" />
            </g>
            <g
   transform="matrix(0.236915,0,0,0.236915,1452.12,22.9796)"
   id="g7">
                <path
   d="m 535.924,134.443 h -3.458 c -5.159,0 -9.347,-4.188 -9.347,-9.347 v -18.118 c 0,-5.159 4.188,-9.348 9.347,-9.348 h 73.491 c 5.159,0 9.347,4.189 9.347,9.348 v 18.118 c 0,5.159 -4.188,9.347 -9.347,9.347 h -3.458 c 0.233,1.599 0.354,3.231 0.354,4.891 v 154.427 c 0,3.186 -0.444,6.269 -1.274,9.192 h 0.499 c 0,0 -21.911,65.733 -32.867,65.733 -10.955,0 -32.866,-65.733 -32.866,-65.733 h 0.499 c -0.83,-2.923 -1.274,-6.006 -1.274,-9.192 V 139.334 c 0,-1.66 0.121,-3.292 0.354,-4.891 z"
   style="fill-opacity:0.38"
   id="path6" />
            </g>
        </g><g
   transform="matrix(1.4255602,0,0,1.4088232,-1218.1806,-11.84664)"
   id="g12">
            <g
   transform="matrix(0.236915,0,0,0.236915,1430.28,194.057)"
   id="g9">
                <path
   d="m 535.924,134.443 h -3.458 c -5.159,0 -9.347,-4.188 -9.347,-9.347 v -18.118 c 0,-5.159 4.188,-9.348 9.347,-9.348 h 73.491 c 5.159,0 9.347,4.189 9.347,9.348 v 18.118 c 0,5.159 -4.188,9.347 -9.347,9.347 h -3.458 c 0.233,1.599 0.354,3.231 0.354,4.891 v 154.427 c 0,3.186 -0.444,6.269 -1.274,9.192 h 0.499 c 0,0 -21.911,65.733 -32.867,65.733 -10.955,0 -32.866,-65.733 -32.866,-65.733 h 0.499 c -0.83,-2.923 -1.274,-6.006 -1.274,-9.192 V 139.334 c 0,-1.66 0.121,-3.292 0.354,-4.891 z"
   style="fill:#ff7300;fill-opacity:0.7"
   id="path8" />
            </g>
            <g
   transform="matrix(0.236915,0,0,0.236915,1408.44,182.436)"
   id="g10">
                <path
   d="m 535.924,134.443 h -3.458 c -5.159,0 -9.347,-4.188 -9.347,-9.347 v -18.118 c 0,-5.159 4.188,-9.348 9.347,-9.348 h 73.491 c 5.159,0 9.347,4.189 9.347,9.348 v 18.118 c 0,5.159 -4.188,9.347 -9.347,9.347 h -3.458 c 0.233,1.599 0.354,3.231 0.354,4.891 v 154.427 c 0,3.186 -0.444,6.269 -1.274,9.192 h 0.499 c 0,0 -21.911,65.733 -32.867,65.733 -10.955,0 -32.866,-65.733 -32.866,-65.733 h 0.499 c -0.83,-2.923 -1.274,-6.006 -1.274,-9.192 V 139.334 c 0,-1.66 0.121,-3.292 0.354,-4.891 z"
   style="fill:url(#linearGradient6)"
   id="path9" />
            </g>
            <g
   transform="matrix(0.236915,0,0,0.236915,1452.12,208.874)"
   id="g11">
                <path
   d="m 535.924,134.443 h -3.458 c -5.159,0 -9.347,-4.188 -9.347,-9.347 v -18.118 c 0,-5.159 4.188,-9.348 9.347,-9.348 h 73.491 c 5.159,0 9.347,4.189 9.347,9.348 v 18.118 c 0,5.159 -4.188,9.347 -9.347,9.347 h -3.458 c 0.233,1.599 0.354,3.231 0.354,4.891 v 154.427 c 0,3.186 -0.444,6.269 -1.274,9.192 h 0.499 c 0,0 -21.911,65.733 -32.867,65.733 -10.955,0 -32.866,-65.733 -32.866,-65.733 h 0.499 c -0.83,-2.923 -1.274,-6.006 -1.274,-9.192 V 139.334 c 0,-1.66 0.121,-3.292 0.354,-4.891 z"
   style="fill:#ff7300;fill-opacity:0.38"
   id="path10" />
            </g>
        </g><g
   transform="matrix(1.4255602,0,0,1.4088232,-1218.1806,-18.26121)"
   id="g16">
            <g
   transform="matrix(0.236915,0,0,0.236915,1430.28,284.712)"
   id="g13">
                <path
   d="m 535.924,134.443 h -3.458 c -5.159,0 -9.347,-4.188 -9.347,-9.347 v -18.118 c 0,-5.159 4.188,-9.348 9.347,-9.348 h 73.491 c 5.159,0 9.347,4.189 9.347,9.348 v 18.118 c 0,5.159 -4.188,9.347 -9.347,9.347 h -3.458 c 0.233,1.599 0.354,3.231 0.354,4.891 v 154.427 c 0,3.186 -0.444,6.269 -1.274,9.192 h 0.499 c 0,0 -21.911,65.733 -32.867,65.733 -10.955,0 -32.866,-65.733 -32.866,-65.733 h 0.499 c -0.83,-2.923 -1.274,-6.006 -1.274,-9.192 V 139.334 c 0,-1.66 0.121,-3.292 0.354,-4.891 z"
   style="fill:#008437;fill-opacity:0.7"
   id="path12" />
            </g>
            <g
   transform="matrix(0.236915,0,0,0.236915,1408.44,273.091)"
   id="g14">
                <path
   d="m 535.924,134.443 h -3.458 c -5.159,0 -9.347,-4.188 -9.347,-9.347 v -18.118 c 0,-5.159 4.188,-9.348 9.347,-9.348 h 73.491 c 5.159,0 9.347,4.189 9.347,9.348 v 18.118 c 0,5.159 -4.188,9.347 -9.347,9.347 h -3.458 c 0.233,1.599 0.354,3.231 0.354,4.891 v 154.427 c 0,3.186 -0.444,6.269 -1.274,9.192 h 0.499 c 0,0 -21.911,65.733 -32.867,65.733 -10.955,0 -32.866,-65.733 -32.866,-65.733 h 0.499 c -0.83,-2.923 -1.274,-6.006 -1.274,-9.192 V 139.334 c 0,-1.66 0.121,-3.292 0.354,-4.891 z"
   style="fill:#008437"
   id="path13" />
            </g>
            <g
   transform="matrix(0.236915,0,0,0.236915,1452.12,299.529)"
   id="g15">
                <path
   d="m 535.924,134.443 h -3.458 c -5.159,0 -9.347,-4.188 -9.347,-9.347 v -18.118 c 0,-5.159 4.188,-9.348 9.347,-9.348 h 73.491 c 5.159,0 9.347,4.189 9.347,9.348 v 18.118 c 0,5.159 -4.188,9.347 -9.347,9.347 h -3.458 c 0.233,1.599 0.354,3.231 0.354,4.891 v 154.427 c 0,3.186 -0.444,6.269 -1.274,9.192 h 0.499 c 0,0 -21.911,65.733 -32.867,65.733 -10.955,0 -32.866,-65.733 -32.866,-65.733 h 0.499 c -0.83,-2.923 -1.274,-6.006 -1.274,-9.192 V 139.334 c 0,-1.66 0.121,-3.292 0.354,-4.891 z"
   style="fill:#008437;fill-opacity:0.38"
   id="path14" />
            </g>
        </g><g
   transform="matrix(0.90097604,0,0,1.4088232,-339.12475,-263.68837)"
   id="g17">
            <path
   d="M 974.013,192.73 V 576.209 H 1477.54"
   style="fill:none;stroke:#000000;stroke-width:6.75px"
   id="path16" />
        </g><g
   transform="matrix(0.90097604,0,0,1.4088232,-339.12475,-251.70773)"
   id="g18"
   style="stroke:#3d3846">
            <path
   d="m 1000.04,530.258 c -3.338,0.068 26.73,-9.448 37.04,-47.566 17.24,-63.781 8,-190.891 70.47,-226.381 81.49,-46.291 122.91,-25.504 317.34,-31.284"
   style="fill:none;stroke:#3d3846;stroke-width:6.75px"
   id="path17" />
        </g><g
   transform="matrix(0.90097604,0,0,1.4088232,-277.1621,-668.36861)"
   id="g19">
            <path
   d="m 979.391,716.562 c 4.575,-13.724 17.476,-15.818 33.229,-19.27 15.98,-3.499 39.09,-7 45.37,-10.139 22.05,-11.023 21.14,-49.404 27.41,-72.902 10.18,-38.142 22.68,-56.828 55.17,-62.243 46.49,-7.749 167.34,-7.167 214.77,-7.167"
   style="fill:none;stroke:#004ec3;stroke-width:6.75px"
   id="path18" />
        </g><g
   transform="matrix(0.90097604,0,0,1.4088232,-277.1621,-668.36861)"
   id="g20">
            <path
   d="m 979.719,715.446 c 19.758,-17.066 24.041,-14.488 49.041,-22.775 8.4,-2.785 66.95,-8.457 75.81,-9.934 28.22,-4.704 40.19,-8.459 57.91,-29.838 22.29,-26.895 20.74,-67.58 64.73,-76.378 37.68,-7.536 90.82,-7.787 128.26,-7.787"
   style="fill:none;stroke:#ff7300;stroke-width:6.75px"
   id="path19" />
        </g><g
   transform="matrix(0.90097604,0,0,1.4088232,-277.1621,-668.36861)"
   id="g21">
            <path
   d="m 979.209,715.507 c 2.272,-11.363 65.671,-32.377 156.871,-34.339 41.01,-0.882 80.84,-2.595 99.29,-7.207 18.82,-4.706 24.41,-38.14 46.44,-45.486 16.51,-5.501 64.05,-0.858 74.31,-2.886"
   style="fill:none;stroke:#008437;stroke-width:6.75px"
   id="path20" />
        </g><g
   transform="matrix(0.67055567,0,0,0.68796062,-58.017345,-167.71547)"
   id="g22">
            <ellipse
   cx="991.539"
   cy="735.15997"
   rx="32.460999"
   ry="32.84"
   style="fill:none;stroke:#ff2c00;stroke-width:9.35px"
   id="ellipse21" />
        </g><g
   transform="matrix(1.4053718,0,0,1.4053718,411.59757,-268.4023)"
   id="g23">
            <text
   x="465.702"
   y="375.44199"
   style="font-size:41px;font-family:ArialMT, Arial, sans-serif;fill:#004ec3"
   id="text22">200mM</text>
        </g><g
   transform="matrix(1.4053718,0,0,1.4053718,410.93707,-387.15481)"
   id="g24">
            <text
   x="465.702"
   y="375.44199"
   style="font-size:41px;font-family:ArialMT, Arial, sans-serif"
   id="text23">0mM</text>
        </g><g
   transform="matrix(1.4053718,0,0,1.4053718,410.90897,-149.64965)"
   id="g25">
            <text
   x="465.702"
   y="375.44199"
   style="font-size:41px;font-family:ArialMT, Arial, sans-serif;fill:#ff7300"
   id="text24">300mM</text>
        </g><g
   transform="matrix(1.4053718,0,0,1.4053718,412.59537,-30.868898)"
   id="g26">
            <text
   x="465.702"
   y="375.44199"
   style="font-size:41px;font-family:ArialMT, Arial, sans-serif;fill:#008437"
   id="text25">400mM</text>
        </g><g
   transform="matrix(1.4053718,0,0,1.4053718,-79.745872,-481.9826)"
   id="g27">
            <text
   x="465.702"
   y="375.44199"
   style="font-size:41px;font-family:ArialMT, Arial, sans-serif"
   id="text26">spike in</text>
        </g><g
   transform="matrix(1.4053718,0,0,1.4053718,54.960205,-110.59098)"
   id="g28"
   style="fill:url(#swatch6)">
            <text
   x="470.89005"
   y="373.71265"
   style="font-style:italic;font-size:41px;font-family:Arial-ItalicMT, Arial, sans-serif;font-variation-settings:normal;opacity:1;vector-effect:none;fill:url(#swatch6);fill-opacity:1;stroke-width:1;stroke-linecap:butt;stroke-linejoin:miter;stroke-miterlimit:1.5;stroke-dasharray:none;stroke-dashoffset:0;stroke-opacity:1;-inkscape-stroke:none;stop-color:#000000;stop-opacity:1"
   id="text27"><tspan
     sodipodi:role="line"
     id="tspan5"
     x="470.89005"
     y="373.71265"
     style="font-style:normal;font-variant:normal;font-weight:normal;font-stretch:normal;font-size:41px;font-family:'DejaVu Sans';-inkscape-font-specification:'DejaVu Sans, Normal';font-variant-ligatures:normal;font-variant-caps:normal;font-variant-numeric:normal;font-variant-east-asian:normal;fill:url(#swatch6)">ğœ† </tspan></text>
        <text
   xml:space="preserve"
   style="font-style:normal;font-variant:normal;font-weight:normal;font-stretch:normal;font-size:41px;font-family:'DejaVu Sans';-inkscape-font-specification:'DejaVu Sans, Normal';font-variant-ligatures:normal;font-variant-caps:normal;font-variant-numeric:normal;font-variant-east-asian:normal;text-align:start;writing-mode:lr-tb;direction:ltr;text-anchor:start;opacity:1;vector-effect:none;fill:url(#swatch6);fill-opacity:1;stroke:#0d0080;stroke-width:0.999999;stroke-linecap:butt;stroke-linejoin:miter;stroke-miterlimit:1.5;stroke-dasharray:none;stroke-dashoffset:0;stroke-opacity:1;-inkscape-stroke:none"
   x="693.84894"
   y="475.57745"
   id="text6"><tspan
     sodipodi:role="line"
     id="tspan6"
     style="fill:url(#swatch6);stroke-width:1"
     x="693.84894"
     y="475.57745"></tspan></text></g><g
   transform="matrix(1.4441295,0,0,2.2581324,-810.91719,-1185.1433)"
   id="g30">
            <g
   transform="matrix(0.623888,0,0,0.623888,334.148,518.099)"
   id="g29">
                <path
   d="m 1047.37,191.361 -10.13,20.25 -10.12,-20.25 c 5.06,5.062 15.19,5.062 20.25,0 z"
   style="fill:#ff0f00"
   id="path28" />
                <path
   d="M 1037.24,65.208 V 195.411"
   style="fill:none;stroke:#ff0f00;stroke-width:6.75px"
   id="path29" />
            </g>
        </g><g
   transform="matrix(0.89173922,0,0,1.2994789,-276.49121,-633.38932)"
   id="g33"
   style="fill:none;stroke:url(#swatch6)">
            <g
   transform="matrix(1.01036,0,0,1.08415,-59.0782,438.311)"
   id="g32"
   style="fill:none;stroke:url(#swatch6)">
                <path
   d="m 1037.72,293.122 v 15.4"
   style="fill:none;stroke:url(#swatch6);stroke-width:3.85px;stroke-linejoin:miter;stroke-miterlimit:10"
   id="path30" />
                <path
   d="m 1231.5,293.122 v 15.4"
   style="fill:none;stroke:url(#swatch6);stroke-width:3.85px;stroke-linejoin:miter;stroke-miterlimit:10"
   id="path31" />
                <path
   d="M 1037.72,300.822 H 1231.5"
   style="fill:none;stroke:url(#swatch6);stroke-width:3.85px"
   id="path32" />
            </g>
        </g><g
   transform="matrix(0.90097604,0,0,1.1067904,-292.21543,-487.06763)"
   id="g34"
   style="stroke:url(#swatch6)">
            <path
   d="M 1190.9,602.145 V 764.168"
   style="fill:none;stroke:url(#swatch6);stroke-width:3.86px;stroke-dasharray:3.86, 12.02, 0, 0"
   id="path33" />
        </g>
    <g
   transform="matrix(0.90097604,0,0,1.4088232,-874.52158,-263.68875)"
   id="g36">
            <path
   d="M 974.013,192.73 V 576.209 H 1477.54"
   style="fill:none;stroke:#000000;stroke-width:6.75px"
   id="path35" />
        </g><g
   transform="matrix(0.90097604,0,0,1.4088232,-874.52158,-263.68875)"
   id="g37"
   style="stroke:#3d3846">
            <path
   d="m 1000.04,530.258 c -3.338,0.068 26.73,-9.448 37.04,-47.566 17.24,-63.781 8,-190.891 70.47,-226.381 81.49,-46.291 134.83,-25.504 329.27,-31.284"
   style="fill:none;stroke:#3d3846;stroke-width:6.75px"
   id="path36" />
        </g><g
   transform="matrix(0.90097604,0,0,1.4088232,-874.52158,-263.68875)"
   id="g38">
            <path
   d="m 1000.96,531.088 c -0.54,0.056 7.95,1.881 19.04,-2.555 10.69,-4.277 19.29,-10.38 28.4,-17.021 16.87,-12.291 30.13,-27.788 45.66,-58.352 26.58,-52.323 27.13,-143.152 79.19,-172.07 25.62,-14.234 83.54,-15.22 111.89,-17.401 42.49,-3.269 129.48,-0.103 151.68,2.041"
   style="fill:none;stroke:#004ec3;stroke-width:6.75px"
   id="path37" />
        </g><g
   transform="matrix(0.90097604,0,0,1.4088232,-874.52158,-263.68875)"
   id="g39">
            <path
   d="m 1011.26,532.118 c -1.93,-0.582 14.26,-2.932 17.89,-2.932 11.4,0 23.25,-3.856 34.63,-1.96 17.01,2.836 91.94,-3.85 108.45,-10.453 9.3,-3.722 38.68,-43.326 43.44,-52.866 11.06,-22.115 28.29,-48.294 46.62,-64.615 22.63,-20.154 126.14,-19.715 174.53,-19.715"
   style="fill:none;stroke:#ff7300;stroke-width:6.75px"
   id="path38" />
        </g><g
   transform="matrix(0.90097604,0,0,1.4088232,-874.52158,-263.68875)"
   id="g40">
            <path
   d="m 1013.95,532.477 c -1.86,-0.097 4.02,-0.678 4.75,-0.678 h 12.41 c 11.11,0 23.8,2.199 34.63,0.653 34.7,-4.957 138.77,0.487 173.78,-2.194 22.15,-1.696 51.44,-20.806 70.62,-35.804 43.71,-34.179 55.98,-45.512 85.01,-50.813 6.01,-1.098 41.28,0.875 41.67,1.267"
   style="fill:none;stroke:#008437;stroke-width:6.75px"
   id="path39" />
        </g><g
   transform="matrix(1.4053718,0,0,1.4053718,-584.23889,-476.78082)"
   id="g41">
            <text
   x="465.702"
   y="375.44199"
   style="font-size:41px;font-family:ArialMT, Arial, sans-serif"
   id="text40">m1</text>
        </g><g
   transform="matrix(1.4053718,0,0,1.4053718,-467.27346,-487.40269)"
   id="g42">
            <text
   x="465.702"
   y="375.44199"
   style="font-size:41px;font-family:ArialMT, Arial, sans-serif;fill:#004ec3"
   id="text41">m2</text>
        </g><g
   transform="matrix(1.4053718,0,0,1.4053718,-369.11246,-303.8955)"
   id="g43">
            <text
   x="465.702"
   y="375.44199"
   style="font-size:41px;font-family:ArialMT, Arial, sans-serif;fill:#ff7300"
   id="text42">m3</text>
        </g><g
   transform="matrix(1.4053718,0,0,1.4053718,-243.29963,-205.87659)"
   id="g44">
            <text
   x="465.702"
   y="375.44199"
   style="font-size:41px;font-family:ArialMT, Arial, sans-serif;fill:#008437"
   id="text43">m4</text>
        </g><g
   transform="matrix(0.89438361,0.17011118,-0.22288886,2.8652788,-842.37294,-1865.8363)"
   id="g45">
            <path
   d="m 1190.9,602.145 -1.1,157.632"
   style="fill:none;stroke:#000000;stroke-width:2.39px;stroke-dasharray:3.88, 3.25, 0, 0;stroke-dashoffset:8.06"
   id="path44" />
        </g><g
   transform="matrix(0.85580023,0.44050803,-0.57717787,2.7416687,-495.29534,-2103.6316)"
   id="g46">
            <path
   d="m 1190.9,602.145 -0.56,161.189"
   style="fill:none;stroke:#004ec3;stroke-width:2.39px;stroke-dasharray:3.88, 3.25, 0, 0;stroke-dashoffset:8.06"
   id="path45" />
        </g><g
   transform="matrix(0.75077345,0.77884962,-0.7335684,1.7289501,-166.66793,-1732.7871)"
   id="g47">
            <path
   d="m 1190.9,602.145 -0.95,161.049"
   style="fill:none;stroke:#ff7300;stroke-width:3.06px;stroke-dasharray:4.97, 4.17, 0, 0;stroke-dashoffset:10.32"
   id="path46" />
        </g><g
   transform="matrix(0.58293871,1.0742038,-0.98996546,1.3135347,305.47685,-1755.3423)"
   id="g48">
            <path
   d="m 1190.9,602.145 -7.66,157.511"
   style="fill:none;stroke:#008437;stroke-width:3.1px;stroke-dasharray:5.04, 4.23, 0, 0;stroke-dashoffset:10.48"
   id="path47" />
        </g>
<g
   transform="matrix(0.50013251,0,0,0.4113102,67.069591,163.04333)"
   id="g35"
   style="fill:none;stroke:#3d3846;stroke-width:8.81927;stroke-dasharray:none">
            <g
   transform="matrix(1.01036,0,0,1.08415,-59.0782,438.311)"
   id="g31"
   style="fill:none;stroke:#3d3846;stroke-width:8.42656;stroke-dasharray:none">
                <path
   style="fill:none;stroke:#3d3846;stroke-width:8.42656;stroke-linejoin:miter;stroke-miterlimit:10;stroke-dasharray:none"
   id="path7"
   d="m 1037.72,293.122 v 15.4" />
                <path
   d="m 1231.5,293.122 v 15.4"
   style="fill:none;stroke:#3d3846;stroke-width:8.42656;stroke-linejoin:miter;stroke-miterlimit:10;stroke-dasharray:none"
   id="path11" />
                <path
   d="M 1037.72,300.822 H 1231.5"
   style="fill:none;stroke:#3d3846;stroke-width:8.42656;stroke-dasharray:none"
   id="path15" />
            </g>
        </g><g
   transform="matrix(1.815905,0,0,2.230721,-1502.5131,-1234.1812)"
   id="g49"
   style="stroke:#3d3846;stroke-width:0.496157">
            <path
   d="M 1190.9,602.145 V 764.168"
   style="fill:none;stroke:#3d3846;stroke-width:1.91516px;stroke-dasharray:1.91516, 5.96382, 0, 0"
   id="path40" />
        </g><text
   xml:space="preserve"
   style="font-style:normal;font-variant:normal;font-weight:normal;font-stretch:normal;font-size:57.6202px;font-family:'DejaVu Sans';-inkscape-font-specification:'DejaVu Sans, Normal';font-variant-ligatures:normal;font-variant-caps:normal;font-variant-numeric:normal;font-variant-east-asian:normal;text-align:start;writing-mode:lr-tb;direction:ltr;text-anchor:start;opacity:1;fill:#241f31;fill-opacity:1;stroke:none;stroke-width:4.4;stroke-linecap:butt;stroke-linejoin:miter;stroke-miterlimit:1.5;stroke-dasharray:none;stroke-dashoffset:0;stroke-opacity:1"
   x="602.73419"
   y="527.3924"
   id="text49"><tspan
     sodipodi:role="line"
     id="tspan49"
     x="602.73419"
     y="527.3924">t</tspan></text></svg>
